<?xml version="1.0" encoding="UTF-8"?>
<svg xmlns="http://www.w3.org/2000/svg" xmlns:xlink="http://www.w3.org/1999/xlink" width="50px" height="50px" viewBox="0 0 50 50" version="1.1">
<g id="surface1">
<path style=" stroke:none;fill-rule:nonzero;fill:rgb(100%,100%,100%);fill-opacity:1;" d="M 22.566406 13.699219 L 12.003906 14.4375 L 13.285156 8.335938 L 18.054688 8.003906 L 17.222656 12.03125 L 23.011719 11.628906 L 25.089844 1.71875 L 8.726562 2.867188 L 5.023438 20.710938 L 15.585938 19.972656 L 13.859375 28.050781 L 9.132812 28.382812 L 10.191406 23.402344 L 4.359375 23.808594 L 2.0625 34.664062 L 18.410156 33.527344 Z M 22.566406 13.699219 "/>
<path style=" stroke:none;fill-rule:nonzero;fill:rgb(0%,22.352941%,65.098039%);fill-opacity:1;" d="M 42.09375 11.972656 L 31.53125 12.710938 L 32.8125 6.613281 L 37.585938 6.28125 L 36.753906 10.316406 L 42.542969 9.910156 L 44.621094 0 L 28.265625 1.140625 L 24.554688 18.988281 L 35.117188 18.25 L 33.382812 26.328125 L 28.65625 26.660156 L 29.71875 21.679688 L 23.886719 22.085938 L 21.589844 32.941406 L 37.941406 31.800781 Z M 42.09375 11.972656 "/>
<path style=" stroke:none;fill-rule:nonzero;fill:rgb(88.627451%,19.607843%,16.078431%);fill-opacity:1;" d="M 20.261719 49.648438 L 27.238281 16.21875 L 17.292969 16.914062 L 16.066406 22.746094 L 20.308594 22.449219 L 14.558594 50.046875 Z M 20.261719 49.648438 "/>
<path style=" stroke:none;fill-rule:nonzero;fill:rgb(88.627451%,19.607843%,16.078431%);fill-opacity:1;" d="M 43.382812 30.953125 L 46.742188 14.855469 L 42.394531 15.175781 L 26.480469 33.859375 L 25.636719 37.882812 L 36.476562 37.132812 L 34.066406 48.6875 L 39.769531 48.289062 L 42.179688 36.753906 L 46.777344 36.4375 L 47.984375 30.644531 Z M 37.910156 31.804688 L 34.5625 32.035156 L 38.894531 27.101562 Z M 37.910156 31.804688 "/>
</g>
</svg>
